<svg version="1.2" xmlns="http://www.w3.org/2000/svg" viewBox="0 0 2000 1152" width="347" height="200">
	<title>16738507_SL_032321_41610_16-ai</title>
	<defs>
		<linearGradient id="g1" x2="1" gradientUnits="userSpaceOnUse" gradientTransform="matrix(83.249,617.948,-617.948,83.249,888.846,210.481)">
			<stop offset="0" stop-color="#0078ff"/>
			<stop offset=".26" stop-color="#ff1ccd"/>
			<stop offset="1" stop-color="#ffc400"/>
		</linearGradient>
	</defs>
	<style>
		.s0 { fill: #ff1558 } 
		.s1 { fill: #ff5b8a } 
		.s2 { fill: #ff9ab7 } 
		.s3 { fill: #ffd7e3 } 
		.s4 { fill: #5f00f0 } 
		.s5 { fill: #8f4cf4 } 
		.s6 { fill: #ba91f9 } 
		.s7 { fill: #e4d4fc } 
		.s8 { fill: url(#g1) } 
		.s9 { fill: #ffd0fb } 
	</style>
	<g id="_Artboards_">
	</g>
	<g id="Layer 1">
		<g id="&lt;Group&gt;">
			<g id="&lt;Clip Group&gt;">
				<g id="&lt;Group&gt;" style="mix-blend-mode: screen">
					<g id="&lt;Group&gt;" style="opacity: 0">
						<path id="&lt;Path&gt;" class="s0" d="m718.1 1313.7c-87 0-172.2-32.5-237.7-93.1l-589.8-545.4c-93.3-86.3-132.5-216.5-102.3-339.9 30.1-123.5 124.8-221 247.4-254.6l818.9-224.5c122.6-33.6 253.8 1.9 342.7 92.7 88.9 90.9 121.6 222.8 85.3 344.7l-229.1 769.9c-34.5 115.9-126.3 205.7-242.9 237.7-30.6 8.4-61.7 12.5-92.5 12.5z"/>
					</g>
					<g id="&lt;Group&gt;" style="opacity: 0">
						<path id="&lt;Path&gt;" class="s0" d="m718.1 1303.7c-84.6 0-167.3-31.6-230.9-90.4l-589.8-545.4c-90.6-83.9-128.7-210.3-99.4-330.3 29.3-119.9 121.3-214.6 240.4-247.3l818.8-224.5c119.1-32.6 246.6 1.9 333 90.1 86.3 88.3 118 216.4 82.8 334.8l-229.1 769.9c-33.5 112.6-122.7 199.9-236 231-29.6 8.1-59.9 12.1-89.8 12.1z"/>
					</g>
					<g id="&lt;Group&gt;" style="opacity: 0">
						<path id="&lt;Path&gt;" class="s0" d="m718.1 1293.7c-82.1 0-162.4-30.6-224.1-87.8l-589.8-545.4c-88-81.4-124.9-204.1-96.5-320.5 28.4-116.4 117.7-208.3 233.3-240l818.9-224.5c115.6-31.7 239.3 1.8 323.1 87.4 83.8 85.7 114.6 210.1 80.4 324.9l-229.1 770c-32.5 109.2-119.1 194-229 224.1-28.8 7.9-58.1 11.8-87.2 11.8z"/>
					</g>
					<g id="&lt;Group&gt;" style="opacity: 0">
						<path id="&lt;Path&gt;" class="s0" d="m718.1 1283.7c-79.6 0-157.4-29.7-217.3-85.1l-589.8-545.4c-85.3-78.9-121.1-197.9-93.6-310.8 27.6-112.9 114.2-202 226.3-232.8l818.8-224.5c112.1-30.7 232.1 1.7 313.4 84.8 81.2 83.1 111.1 203.7 78 315.1l-229.2 769.9c-31.5 106-115.5 188.1-222.1 217.4-27.9 7.6-56.3 11.4-84.5 11.4z"/>
					</g>
					<g id="&lt;Group&gt;" style="opacity: 0">
						<path id="&lt;Path&gt;" class="s0" d="m718.1 1273.7c-77.1 0-152.5-28.8-210.6-82.5l-589.7-545.4c-82.7-76.4-117.4-191.7-90.7-301.1 26.7-109.4 110.6-195.7 219.2-225.4l818.9-224.5c108.6-29.8 224.8 1.6 303.5 82.1 78.8 80.5 107.7 197.3 75.6 305.2l-229.1 770c-30.6 102.6-111.9 182.2-215.2 210.5-27 7.4-54.6 11.1-81.9 11.1z"/>
					</g>
					<g id="&lt;Group&gt;" style="opacity: 0">
						<path id="&lt;Path&gt;" class="s0" d="m718.1 1263.7c-74.6 0-147.6-27.9-203.8-79.8l-589.7-545.4c-80-74-113.6-185.5-87.8-291.4 25.9-105.9 107.1-189.4 212.2-218.2l818.8-224.5c105.1-28.8 217.6 1.6 293.8 79.5 76.2 77.9 104.2 191 73.1 295.4l-229.1 769.9c-29.6 99.3-108.3 176.4-208.2 203.8-26.2 7.2-52.9 10.7-79.3 10.7z"/>
					</g>
					<g id="&lt;Group&gt;" style="opacity: 0">
						<path id="&lt;Path&gt;" class="s0" d="m718 1253.7c-72 0-142.6-26.9-196.9-77.1l-589.7-545.5c-77.4-71.5-109.8-179.3-84.8-281.6 24.9-102.4 103.4-183.1 205-210.9l818.9-224.6c101.6-27.8 210.2 1.6 283.9 76.9 73.7 75.3 100.7 184.6 70.7 285.5l-229.1 770c-28.6 96-104.7 170.4-201.3 196.9-25.3 7-51.1 10.4-76.7 10.4z"/>
					</g>
					<g id="&lt;Group&gt;" style="opacity: 0">
						<path id="&lt;Path&gt;" class="s0" d="m718.1 1243.7c-69.6 0-137.8-26-190.2-74.5l-589.7-545.4c-74.7-69-106-173.2-81.9-272 24.1-98.8 99.9-176.7 197.9-203.6l818.9-224.5c98.1-26.9 203 1.5 274.2 74.2 71.1 72.7 97.2 178.2 68.2 275.7l-229.1 769.9c-27.6 92.7-101.1 164.6-194.3 190.2-24.5 6.7-49.4 10-74 10z"/>
					</g>
					<g id="&lt;Group&gt;" style="opacity: 0">
						<path id="&lt;Path&gt;" class="s0" d="m718 1233.7c-67.1 0-132.8-25.1-183.3-71.8l-589.7-545.4c-72-66.6-102.3-167-79-262.3 23.2-95.3 96.3-170.4 190.9-196.4l818.9-224.5c94.5-25.9 195.7 1.5 264.3 71.6 68.6 70.1 93.8 171.8 65.8 265.8l-229.1 770c-26.6 89.4-97.4 158.7-187.4 183.3-23.5 6.5-47.5 9.7-71.4 9.7z"/>
					</g>
					<g id="&lt;Group&gt;" style="opacity: 0">
						<path id="&lt;Path&gt;" class="s0" d="m718 1223.7c-64.6 0-127.8-24.2-176.5-69.2l-589.8-545.4c-69.3-64.1-98.4-160.8-76-252.5 22.4-91.8 92.8-164.1 183.8-189.1l818.9-224.5c91.1-25 188.5 1.4 254.6 68.9 66 67.5 90.3 165.5 63.3 256l-229.1 769.9c-25.6 86.1-93.8 152.9-180.4 176.6-22.7 6.2-45.8 9.3-68.8 9.3z"/>
					</g>
					<g id="&lt;Group&gt;" style="opacity: 0">
						<path id="&lt;Path&gt;" class="s0" d="m718 1213.7c-62.1 0-122.9-23.2-169.7-66.5l-589.8-545.4c-66.6-61.7-94.6-154.6-73.1-242.8 21.5-88.3 89.2-157.9 176.8-181.9l818.8-224.5c87.6-24 181.3 1.4 244.8 66.3 63.5 64.9 86.9 159.1 61 246.1l-229.1 770c-24.7 82.7-90.3 146.9-173.6 169.8-21.8 5.9-44 8.9-66.1 8.9z"/>
					</g>
					<g id="&lt;Group&gt;" style="opacity: 0">
						<path id="&lt;Path&gt;" class="s0" d="m718 1203.7c-59.6 0-118-22.3-162.9-63.8l-589.8-545.5c-64-59.2-90.8-148.4-70.2-233.1 20.7-84.7 85.7-151.5 169.7-174.5l818.9-224.5c84.1-23.1 174 1.3 235 63.6 60.9 62.3 83.3 152.7 58.5 236.3l-229.1 769.9c-23.7 79.5-86.7 141.1-166.6 163-20.9 5.8-42.3 8.6-63.5 8.6z"/>
					</g>
					<g id="&lt;Group&gt;" style="opacity: 0">
						<path id="&lt;Compound Path&gt;" fill-rule="evenodd" class="s0" d="m718 1193.7c-57.1 0-113.1-21.4-156.1-61.2l-589.8-545.4c-61.3-56.7-87.1-142.2-67.3-223.4 19.9-81.2 82.1-145.2 162.7-167.3l818.8-224.5c80.6-22.1 166.8 1.3 225.2 61 58.5 59.7 79.9 146.4 56.1 226.4l-229.1 770c-22.7 76.1-83 135.2-159.6 156.2-20.1 5.5-40.6 8.2-60.9 8.2zm-129.5-663.1l14.5 13.4 5.6-19z"/>
					</g>
					<g id="&lt;Group&gt;" style="opacity: 0">
						<path id="&lt;Compound Path&gt;" fill-rule="evenodd" class="s0" d="m718 1183.7c-54.6 0-108.2-20.4-149.3-58.5l-589.8-545.4c-58.7-54.3-83.3-136.1-64.3-213.7 18.9-77.7 78.4-138.9 155.5-160l818.9-224.5c77-21.2 159.5 1.1 215.4 58.3 55.9 57.1 76.4 140 53.6 216.6l-229.1 769.9c-21.7 72.8-79.4 129.3-152.7 149.4-19.2 5.3-38.7 7.9-58.2 7.9zm-149.5-658l39.5 36.5 15.3-51.6z"/>
					</g>
					<g id="&lt;Group&gt;" style="opacity: 0">
						<path id="&lt;Compound Path&gt;" fill-rule="evenodd" class="s0" d="m718 1173.7c-52.2 0-103.2-19.5-142.6-55.9l-589.7-545.4c-56-51.8-79.5-129.9-61.4-204 18.1-74.1 74.9-132.5 148.5-152.7l818.8-224.5c73.6-20.2 152.3 1.1 205.6 55.6 53.4 54.6 73 133.7 51.2 206.8l-229.1 770c-20.7 69.5-75.8 123.4-145.7 142.6-18.4 5-37 7.5-55.6 7.5zm-169.5-652.9l64.5 59.6 25-84.2z"/>
					</g>
					<g id="&lt;Group&gt;" style="opacity: 0">
						<path id="&lt;Compound Path&gt;" fill-rule="evenodd" class="s0" d="m718 1163.7c-49.7 0-98.3-18.6-135.8-53.2l-589.7-545.4c-53.3-49.4-75.7-123.7-58.5-194.3 17.2-70.6 71.3-126.2 141.4-145.4l818.9-224.6c70-19.2 145 1.1 195.8 53 50.8 52 69.5 127.3 48.7 197l-229.1 769.9c-19.7 66.2-72.2 117.6-138.8 135.8-17.4 4.8-35.2 7.2-52.9 7.2zm-189.6-647.8l89.6 82.8 34.7-116.9z"/>
					</g>
					<g id="&lt;Group&gt;" style="opacity: 0">
						<path id="&lt;Compound Path&gt;" fill-rule="evenodd" class="s0" d="m718 1153.7c-47.2 0-93.4-17.7-129-50.6l-589.7-545.4c-50.7-46.8-72-117.5-55.6-184.5 16.4-67.1 67.8-120 134.3-138.2l818.9-224.5c66.6-18.3 137.8 1 186 50.3 48.3 49.4 66 121 46.4 187.1l-229.2 769.9c-18.7 63-68.5 111.7-131.8 129.1-16.6 4.5-33.5 6.8-50.3 6.8zm-209.6-642.7l114.6 105.9 44.5-149.5z"/>
					</g>
					<g id="&lt;Group&gt;" style="opacity: 0">
						<path id="&lt;Compound Path&gt;" fill-rule="evenodd" class="s0" d="m718 1143.7c-44.7 0-88.5-16.7-122.2-47.9l-589.7-545.4c-48-44.4-68.2-111.3-52.7-174.8 15.5-63.6 64.2-113.7 127.3-131l818.9-224.5c63-17.3 130.5 1 176.2 47.7 45.7 46.8 62.5 114.6 43.9 177.3l-229.1 769.9c-17.8 59.6-65 105.8-125 122.3-15.7 4.3-31.7 6.4-47.6 6.4zm-229.6-637.6l139.6 129.1 54.2-182.2z"/>
					</g>
					<g id="&lt;Group&gt;" style="opacity: 0">
						<path id="&lt;Compound Path&gt;" fill-rule="evenodd" class="s0" d="m718 1133.7c-42.2 0-83.6-15.8-115.4-45.2l-589.7-545.5c-45.4-41.9-64.4-105.1-49.8-165.1 14.7-60 60.7-107.3 120.2-123.6l818.9-224.5c59.6-16.3 123.3 0.9 166.4 45 43.2 44.2 59.1 108.2 41.5 167.4l-229.1 769.9c-16.8 56.3-61.4 100-118 115.5-14.8 4.1-30 6.1-45 6.1zm-249.6-632.4l164.6 152.1 63.9-214.8z"/>
					</g>
					<g id="&lt;Group&gt;" style="opacity: 0">
						<path id="&lt;Compound Path&gt;" fill-rule="evenodd" class="s0" d="m718 1123.7c-39.7 0-78.7-14.9-108.6-42.6l-589.8-545.4c-42.6-39.5-60.5-98.9-46.8-155.4 13.8-56.5 57.1-101 113.2-116.4l818.8-224.5c56.1-15.3 116.1 0.9 156.7 42.4 40.6 41.6 55.6 101.9 39 157.6l-229.1 769.9c-15.8 53-57.8 94-111.1 108.7-13.9 3.8-28.1 5.7-42.3 5.7zm-269.6-627.3l189.6 175.3 73.6-247.5z"/>
					</g>
					<g id="&lt;Group&gt;" style="opacity: 0">
						<path id="&lt;Compound Path&gt;" fill-rule="evenodd" class="s0" d="m718 1113.7c-37.2 0-73.7-14-101.8-39.9l-589.8-545.4c-40-37-56.8-92.8-43.8-145.7 12.9-53 53.5-94.7 106-109.1l818.9-224.5c52.5-14.4 108.7 0.8 146.9 39.7 38.1 39 52.1 95.5 36.5 147.7l-229.1 769.9c-14.8 49.7-54.1 88.2-104.1 101.9-13.1 3.6-26.4 5.4-39.7 5.4zm-289.6-622.2l214.6 198.4 83.4-280.1z"/>
					</g>
					<g id="&lt;Group&gt;" style="opacity: 0">
						<path id="&lt;Compound Path&gt;" fill-rule="evenodd" class="s0" d="m718 1103.7c-34.8 0-68.8-13-95-37.3l-589.8-545.4c-37.3-34.5-53-86.6-40.9-136 12-49.4 49.9-88.3 99-101.8l818.8-224.5c49.1-13.4 101.5 0.8 137.1 37.1 35.6 36.4 48.6 89.1 34.1 137.9l-229.1 769.9c-13.8 46.3-50.5 82.3-97.1 95.1-12.3 3.3-24.7 5-37.1 5zm-309.6-617.1l239.6 221.6 93.1-312.8z"/>
					</g>
					<g id="&lt;Group&gt;" style="opacity: 0">
						<path id="&lt;Compound Path&gt;" fill-rule="evenodd" class="s0" d="m718 1093.7c-32.3 0-63.9-12.1-88.2-34.6l-589.8-545.4c-34.6-32.1-49.2-80.4-38-126.3 11.2-45.9 46.4-82.1 91.9-94.5l818.9-224.5c45.5-12.5 94.2 0.7 127.3 34.4 33 33.7 45.1 82.7 31.6 128l-229.1 769.9c-12.8 43.1-46.9 76.5-90.2 88.3-11.3 3.1-22.9 4.7-34.4 4.7zm-329.6-612l264.6 244.7 102.8-345.4z"/>
					</g>
					<g id="&lt;Group&gt;" style="opacity: 0">
						<path id="&lt;Compound Path&gt;" fill-rule="evenodd" class="s0" d="m718 1083.7c-29.8 0-59-11.2-81.4-31.9l-589.8-545.5c-32-29.6-45.4-74.2-35.1-116.5 10.3-42.4 42.8-75.8 84.9-87.3l818.8-224.5c42.1-11.5 87 0.6 117.5 31.8 30.5 31.1 41.7 76.4 29.3 118.2l-229.2 769.9c-11.8 39.7-43.3 70.5-83.2 81.5-10.5 2.9-21.2 4.3-31.8 4.3zm-349.6-606.9l289.6 267.9 112.5-378.1z"/>
					</g>
					<g id="&lt;Group&gt;" style="opacity: 0">
						<path id="&lt;Compound Path&gt;" fill-rule="evenodd" class="s0" d="m718 1073.7c-27.3 0-54.1-10.2-74.7-29.3l-589.7-545.4c-29.3-27.1-41.7-68-32.2-106.8 9.5-38.9 39.3-69.5 77.8-80l818.9-224.6c38.5-10.5 79.7 0.6 107.7 29.2 27.9 28.5 38.2 70 26.8 108.3l-229.1 769.9c-10.9 36.4-39.7 64.7-76.4 74.7-9.6 2.7-19.4 4-29.1 4zm-369.6-601.7l314.6 290.9 122.2-410.7z"/>
					</g>
					<g id="&lt;Group&gt;" style="opacity: 0">
						<path id="&lt;Compound Path&gt;" fill-rule="evenodd" class="s0" d="m718 1063.7c-24.8 0-49.1-9.3-67.9-26.6l-589.7-545.4c-26.7-24.7-37.9-61.9-29.3-97.2 8.6-35.3 35.7-63.1 70.7-72.7l818.9-224.5c35-9.6 72.5 0.5 97.9 26.5 25.4 25.9 34.8 63.6 24.4 98.4l-229.1 770c-9.9 33.1-36.1 58.8-69.4 67.9-8.7 2.4-17.6 3.6-26.5 3.6zm-389.6-596.6l339.6 314.1 131.9-443.4z"/>
					</g>
					<g id="&lt;Group&gt;" style="opacity: 0">
						<path id="&lt;Compound Path&gt;" fill-rule="evenodd" class="s0" d="m718 1053.7c-22.3 0-44.2-8.4-61.1-24l-589.7-545.4c-24-22.2-34.1-55.6-26.3-87.4 7.7-31.8 32.1-56.8 63.6-65.5l818.9-224.5c31.5-8.6 65.2 0.5 88.1 23.9 22.8 23.3 31.2 57.3 21.9 88.6l-229.1 769.9c-8.9 29.8-32.5 52.9-62.5 61.2-7.8 2.1-15.8 3.2-23.8 3.2zm-409.6-591.5l364.6 337.2 141.7-476z"/>
					</g>
					<g id="&lt;Group&gt;" style="opacity: 0">
						<path id="&lt;Compound Path&gt;" fill-rule="evenodd" class="s0" d="m718 1043.7c-19.8 0-39.3-7.5-54.3-21.3l-589.7-545.4c-21.4-19.8-30.3-49.5-23.4-77.7 6.9-28.3 28.5-50.5 56.5-58.2l818.9-224.5c28-7.7 58 0.4 78.3 21.2 20.3 20.7 27.8 50.9 19.5 78.7l-229.1 770c-7.9 26.5-28.9 47-55.5 54.3-7 1.9-14.1 2.9-21.2 2.9zm-429.6-586.4l389.6 360.4 151.4-508.7z"/>
					</g>
					<g id="&lt;Group&gt;" style="opacity: 0">
						<path id="&lt;Compound Path&gt;" fill-rule="evenodd" class="s0" d="m718 1033.7c-17.4 0-34.4-6.5-47.5-18.7l-589.7-545.4c-18.7-17.2-26.5-43.3-20.5-68 6-24.7 25-44.1 49.5-50.9l818.8-224.5c24.6-6.7 50.8 0.4 68.6 18.6 17.8 18.1 24.3 44.5 17 68.9l-229.1 769.9c-6.9 23.2-25.2 41.2-48.6 47.6-6.1 1.6-12.3 2.5-18.5 2.5zm-449.7-581.3l414.7 383.5 161.1-541.3z"/>
					</g>
					<g id="&lt;Group&gt;" style="opacity: 0">
						<path id="&lt;Compound Path&gt;" fill-rule="evenodd" class="s0" d="m718 1023.7c-14.9 0-29.5-5.6-40.7-16l-589.8-545.4c-16-14.8-22.7-37.1-17.5-58.3 5.2-21.2 21.4-37.9 42.4-43.6l818.9-224.5c21-5.8 43.5 0.3 58.7 15.9 15.3 15.5 20.9 38.2 14.7 59l-229.2 770c-5.9 19.8-21.6 35.2-41.6 40.7-5.2 1.5-10.6 2.2-15.9 2.2zm-469.7-576.2l439.7 406.7 170.8-574z"/>
					</g>
					<g id="&lt;Group&gt;" style="opacity: .1">
						<path id="&lt;Compound Path&gt;" fill-rule="evenodd" class="s0" d="m718 1013.7c-12.4 0-24.6-4.7-33.9-13.3l-589.8-545.5c-13.3-12.3-18.9-30.9-14.6-48.5 4.3-17.7 17.8-31.6 35.4-36.4l818.8-224.5c17.5-4.8 36.3 0.3 49 13.3 12.7 12.9 17.3 31.8 12.2 49.2l-229.1 769.9c-5 16.6-18.1 29.4-34.7 34-4.4 1.2-8.9 1.8-13.3 1.8zm-489.7-571l464.7 429.7 180.5-606.6z"/>
					</g>
					<g id="&lt;Group&gt;">
						<path id="&lt;Compound Path&gt;" fill-rule="evenodd" class="s0" d="m718 1003.7c-9.9 0-19.6-3.8-27.1-10.7l-589.8-545.4c-10.6-9.9-15.1-24.7-11.7-38.8 3.5-14.2 14.3-25.3 28.3-29.1l818.9-224.5c14-3.9 29 0.2 39.1 10.6 10.2 10.3 13.9 25.4 9.8 39.3l-229.1 770c-4 13.2-14.5 23.5-27.8 27.1-3.5 1-7 1.5-10.6 1.5zm-509.7-565.9l489.7 452.9 190.3-639.4z"/>
					</g>
					<g id="&lt;Group&gt;">
						<path id="&lt;Compound Path&gt;" fill-rule="evenodd" class="s1" d="m718 992.2c-7.1 0-14-2.6-19.4-7.6l-589.7-545.4c-7.6-7-10.8-17.7-8.4-27.7 2.5-10.1 10.2-18.1 20.2-20.8l818.9-224.5c10-2.8 20.7 0.1 28 7.5 7.2 7.5 9.9 18.2 6.9 28.2l-229.1 769.9c-2.8 9.5-10.3 16.8-19.8 19.4-2.5 0.7-5 1-7.6 1zm-532.5-560l518.2 479.3 201.4-676.6z"/>
					</g>
					<g id="&lt;Group&gt;">
						<path id="&lt;Compound Path&gt;" fill-rule="evenodd" class="s2" d="m718 980.8c-4.2 0-8.4-1.6-11.6-4.6l-589.8-545.4c-4.5-4.2-6.4-10.6-5-16.6 1.5-6.1 6.1-10.9 12.2-12.5l818.8-224.5c6-1.7 12.4 0.1 16.8 4.5 4.4 4.5 6 10.9 4.2 16.9l-229.1 769.9c-1.7 5.7-6.2 10.1-11.9 11.7q-2.3 0.6-4.6 0.6zm-555.4-554.2l546.9 505.8 212.4-714z"/>
					</g>
					<g id="&lt;Group&gt;">
						<path id="&lt;Compound Path&gt;" fill-rule="evenodd" class="s3" d="m718 969.4c-1.4 0-2.8-0.6-3.8-1.5l-589.8-545.5c-1.5-1.4-2.2-3.5-1.7-5.5 0.5-2 2.1-3.6 4.1-4.2l818.8-224.5c2-0.5 4.2 0 5.6 1.5 1.5 1.5 2 3.7 1.4 5.7l-229.1 769.9c-0.6 1.9-2.1 3.3-4 3.9q-0.7 0.2-1.5 0.2zm-578.3-548.4l575.5 532.2 223.5-751.2z"/>
					</g>
				</g>
				<g id="&lt;Group&gt;" style="mix-blend-mode: screen">
					<g id="&lt;Group&gt;" style="opacity: 0">
						<path id="&lt;Path&gt;" class="s4" d="m681.7 1180.9c-87 0-172.2-32.5-237.7-93l-400.8-370.7c-93.3-86.3-132.5-216.4-102.4-339.9 30.2-123.5 124.9-221 247.5-254.6l556.5-152.6c122.6-33.6 253.8 1.9 342.7 92.8 88.9 90.9 121.6 222.8 85.3 344.6l-155.7 523.2c-34.5 115.9-126.3 205.8-242.9 237.7-30.6 8.4-61.7 12.5-92.5 12.5z"/>
					</g>
					<g id="&lt;Group&gt;" style="opacity: 0">
						<path id="&lt;Path&gt;" class="s4" d="m681.7 1170.9c-84.6 0-167.3-31.5-230.9-90.4l-400.8-370.6c-90.6-83.9-128.7-210.3-99.4-330.3 29.2-119.9 121.3-214.6 240.4-247.2l556.4-152.6c119.1-32.7 246.6 1.8 332.9 90.1 86.4 88.3 118.1 216.4 82.9 334.8l-155.7 523.2c-33.5 112.5-122.7 199.8-236 230.9-29.6 8.1-59.9 12.1-89.8 12.1z"/>
					</g>
					<g id="&lt;Group&gt;" style="opacity: 0">
						<path id="&lt;Path&gt;" class="s4" d="m681.7 1160.9c-82.1 0-162.4-30.6-224.1-87.7l-400.8-370.7c-88-81.3-124.9-204-96.5-320.5 28.4-116.4 117.7-208.3 233.3-240l556.5-152.6c115.6-31.7 239.3 1.8 323.1 87.5 83.8 85.6 114.6 210 80.4 324.9l-155.7 523.2c-32.5 109.3-119.1 194-229 224.2-28.8 7.9-58.1 11.7-87.2 11.7z"/>
					</g>
					<g id="&lt;Group&gt;" style="opacity: 0">
						<path id="&lt;Path&gt;" class="s4" d="m681.7 1150.9c-79.6 0-157.4-29.7-217.3-85.1l-400.8-370.6c-85.3-78.9-121.2-197.9-93.6-310.8 27.5-112.9 114.2-202 226.3-232.8l556.4-152.5c112.1-30.8 232.1 1.7 313.3 84.8 81.3 83 111.2 203.7 78 315.1l-155.7 523.2c-31.5 105.9-115.5 188.1-222.1 217.3-27.9 7.7-56.3 11.4-84.5 11.4z"/>
					</g>
					<g id="&lt;Group&gt;" style="opacity: 0">
						<path id="&lt;Path&gt;" class="s4" d="m681.7 1140.9c-77.1 0-152.5-28.7-210.5-82.4l-400.8-370.7c-82.7-76.4-117.4-191.7-90.7-301 26.7-109.4 110.6-195.7 219.2-225.5l556.5-152.6c108.6-29.8 224.7 1.7 303.5 82.2 78.7 80.4 107.7 197.3 75.6 305.2l-155.7 523.2c-30.6 102.7-111.9 182.3-215.2 210.6-27 7.4-54.6 11-81.9 11z"/>
					</g>
					<g id="&lt;Group&gt;" style="opacity: 0">
						<path id="&lt;Path&gt;" class="s4" d="m681.7 1130.9c-74.6 0-147.6-27.8-203.8-79.7l-400.7-370.7c-80-74-113.6-185.5-87.8-291.4 25.9-105.8 107.1-189.4 212.1-218.2l556.5-152.5c105.1-28.8 217.5 1.6 293.7 79.5 76.3 77.8 104.3 190.9 73.2 295.4l-155.7 523.2c-29.6 99.3-108.3 176.3-208.2 203.7-26.2 7.2-52.9 10.7-79.3 10.7z"/>
					</g>
					<g id="&lt;Group&gt;" style="opacity: 0">
						<path id="&lt;Path&gt;" class="s4" d="m681.7 1120.9c-72.1 0-142.7-26.9-197-77.1l-400.7-370.6c-77.4-71.6-109.8-179.4-84.9-281.7 25-102.3 103.5-183.1 205.1-210.9l556.5-152.6c101.5-27.8 210.2 1.6 283.9 76.9 73.7 75.2 100.7 184.5 70.7 285.5l-155.7 523.2c-28.6 96-104.7 170.5-201.3 197-25.3 6.9-51.1 10.3-76.6 10.3z"/>
					</g>
					<g id="&lt;Group&gt;" style="opacity: 0">
						<path id="&lt;Path&gt;" class="s4" d="m681.7 1110.9c-69.6 0-137.8-26-190.2-74.4l-400.7-370.7c-74.7-69-106.1-173.1-81.9-271.9 24.1-98.8 99.9-176.8 197.9-203.7l556.5-152.5c98.1-26.9 203 1.5 274.2 74.2 71.1 72.6 97.2 178.2 68.2 275.7l-155.7 523.2c-27.6 92.7-101.1 164.6-194.3 190.1-24.5 6.7-49.3 10-74 10z"/>
					</g>
					<g id="&lt;Group&gt;" style="opacity: 0">
						<path id="&lt;Path&gt;" class="s4" d="m681.7 1100.9c-67.2 0-132.8-25-183.4-71.8l-400.8-370.6c-72-66.6-102.2-167-78.9-262.3 23.2-95.2 96.3-170.4 190.9-196.3l556.4-152.6c94.6-25.9 195.8 1.5 264.4 71.5 68.6 70.1 93.8 171.9 65.8 265.9l-155.7 523.2c-26.6 89.4-97.4 158.7-187.4 183.4-23.5 6.5-47.5 9.6-71.3 9.6z"/>
					</g>
					<g id="&lt;Group&gt;" style="opacity: 0">
						<path id="&lt;Path&gt;" class="s4" d="m681.7 1090.9c-64.7 0-127.9-24.1-176.6-69.1l-400.8-370.7c-69.3-64.1-98.4-160.7-76-252.5 22.4-91.7 92.7-164.1 183.8-189.1l556.5-152.6c91.1-24.9 188.5 1.4 254.6 68.9 66 67.5 90.3 165.5 63.3 256l-155.7 523.3c-25.6 86-93.8 152.8-180.4 176.5-22.7 6.3-45.8 9.3-68.7 9.3z"/>
					</g>
					<g id="&lt;Group&gt;" style="opacity: 0">
						<path id="&lt;Path&gt;" class="s4" d="m681.7 1080.9c-62.2 0-123-23.2-169.8-66.5l-400.8-370.6c-66.6-61.7-94.6-154.6-73.1-242.8 21.5-88.2 89.2-157.8 176.8-181.8l556.4-152.6c87.6-24 181.3 1.3 244.8 66.2 63.5 64.9 86.9 159.2 60.9 246.2l-155.6 523.2c-24.7 82.8-90.3 147-173.6 169.8-21.8 6-44 8.9-66 8.9z"/>
					</g>
					<g id="&lt;Group&gt;" style="opacity: 0">
						<path id="&lt;Path&gt;" class="s4" d="m681.7 1070.9c-59.7 0-118.1-22.3-163-63.8l-400.8-370.6c-64-59.2-90.9-148.5-70.2-233.1 20.7-84.7 85.6-151.6 169.7-174.6l556.5-152.6c84-23 174 1.3 235 63.6 60.9 62.3 83.3 152.8 58.5 236.3l-155.7 523.3c-23.7 79.4-86.7 141-166.6 163-20.9 5.7-42.3 8.5-63.4 8.5z"/>
					</g>
					<g id="&lt;Group&gt;" style="opacity: 0">
						<path id="&lt;Path&gt;" class="s4" d="m681.7 1060.9c-57.2 0-113.2-21.3-156.2-61.1l-400.8-370.7c-61.3-56.7-87.1-142.2-67.3-223.4 19.8-81.1 82.1-145.2 162.6-167.3l556.5-152.5c80.6-22.1 166.8 1.2 225.2 60.9 58.4 59.7 79.9 146.4 56.1 226.5l-155.7 523.2c-22.7 76.2-83 135.2-159.6 156.2-20.1 5.5-40.6 8.2-60.8 8.2z"/>
					</g>
					<g id="&lt;Group&gt;" style="opacity: 0">
						<path id="&lt;Path&gt;" class="s4" d="m681.6 1050.9c-54.6 0-108.2-20.4-149.3-58.5l-400.8-370.6c-58.7-54.3-83.3-136.1-64.4-213.7 19-77.6 78.5-138.9 155.6-160l556.5-152.6c77-21.1 159.5 1.2 215.4 58.3 55.9 57.1 76.4 140.1 53.6 216.6l-155.7 523.3c-21.7 72.8-79.4 129.3-152.7 149.4-19.2 5.2-38.7 7.8-58.2 7.8z"/>
					</g>
					<g id="&lt;Group&gt;" style="opacity: 0">
						<path id="&lt;Path&gt;" class="s4" d="m681.6 1040.9c-52.2 0-103.2-19.5-142.6-55.8l-400.7-370.7c-56-51.8-79.5-129.8-61.4-203.9 18-74.1 74.9-132.6 148.4-152.8l556.5-152.5c73.6-20.2 152.3 1.1 205.6 55.6 53.4 54.5 73 133.7 51.2 206.8l-155.7 523.2c-20.7 69.5-75.8 123.4-145.7 142.6-18.4 5.1-37 7.5-55.6 7.5z"/>
					</g>
					<g id="&lt;Group&gt;" style="opacity: 0">
						<path id="&lt;Path&gt;" class="s4" d="m681.6 1030.9c-49.7 0-98.3-18.5-135.8-53.2l-400.7-370.6c-53.4-49.3-75.8-123.7-58.5-194.3 17.2-70.5 71.3-126.2 141.4-145.4l556.5-152.6c70-19.2 145 1.1 195.8 53 50.8 51.9 69.4 127.3 48.7 196.9l-155.7 523.2c-19.7 66.3-72.2 117.6-138.8 135.9-17.4 4.8-35.2 7.1-52.9 7.1z"/>
					</g>
					<g id="&lt;Group&gt;" style="opacity: 0">
						<path id="&lt;Path&gt;" class="s4" d="m681.6 1020.9c-47.2 0-93.4-17.6-129-50.5l-400.7-370.7c-50.7-46.8-72-117.4-55.6-184.5 16.3-67 67.8-119.9 134.3-138.2l556.5-152.5c66.6-18.3 137.8 1 186 50.3 48.3 49.3 66 120.9 46.3 187.1l-155.7 523.2c-18.7 62.9-68.5 111.7-131.8 129-16.6 4.6-33.5 6.8-50.3 6.8z"/>
					</g>
					<g id="&lt;Group&gt;" style="opacity: 0">
						<path id="&lt;Path&gt;" class="s4" d="m681.6 1010.9c-44.7 0-88.5-16.7-122.2-47.8l-400.7-370.7c-48-44.4-68.2-111.3-52.7-174.8 15.5-63.5 64.2-113.6 127.3-130.9l556.4-152.6c63.1-17.3 130.6 1 176.3 47.7 45.7 46.7 62.5 114.6 43.9 177.2l-155.7 523.2c-17.8 59.6-65 105.9-125 122.3-15.7 4.3-31.7 6.4-47.6 6.4z"/>
					</g>
					<g id="&lt;Group&gt;" style="opacity: 0">
						<path id="&lt;Path&gt;" class="s4" d="m681.6 1000.9c-42.2 0-83.6-15.8-115.4-45.2l-400.8-370.6c-45.3-42-64.3-105.2-49.7-165.2 14.7-59.9 60.7-107.3 120.2-123.6l556.5-152.6c59.5-16.3 123.3 1 166.4 45.1 43.2 44.1 59.1 108.2 41.5 167.4l-155.7 523.2c-16.8 56.3-61.4 99.9-118 115.5-14.8 4-30 6-45 6z"/>
					</g>
					<g id="&lt;Group&gt;" style="opacity: 0">
						<path id="&lt;Compound Path&gt;" fill-rule="evenodd" class="s4" d="m681.6 990.9c-39.7 0-78.7-14.8-108.6-42.5l-400.8-370.7c-42.6-39.4-60.5-98.9-46.8-155.4 13.8-56.4 57.1-101 113.2-116.3l556.4-152.6c56.1-15.4 116 0.9 156.7 42.4 40.6 41.5 55.6 101.8 39 157.5l-155.7 523.2c-15.8 53-57.8 94.1-111.1 108.7-13.9 3.8-28.1 5.7-42.3 5.7zm-80.6-452.5l0.6 0.5 0.2-0.7z"/>
					</g>
					<g id="&lt;Group&gt;" style="opacity: 0">
						<path id="&lt;Compound Path&gt;" fill-rule="evenodd" class="s4" d="m681.6 980.9c-37.2 0-73.7-13.9-101.8-39.9l-400.8-370.6c-40-37-56.8-92.8-43.9-145.7 13-52.9 53.6-94.7 106.1-109.1l556.5-152.6c52.5-14.4 108.7 0.8 146.8 39.8 38.1 38.9 52.1 95.5 36.6 147.7l-155.7 523.2c-14.8 49.6-54.1 88.2-104.1 101.9-13.1 3.6-26.4 5.3-39.7 5.3zm-100.6-447.4l25.6 23.7 9.9-33.4z"/>
					</g>
					<g id="&lt;Group&gt;" style="opacity: 0">
						<path id="&lt;Compound Path&gt;" fill-rule="evenodd" class="s4" d="m681.6 970.9c-34.8 0-68.8-13-95-37.2l-400.8-370.7c-37.3-34.5-53-86.5-40.9-135.9 12-49.4 49.9-88.4 98.9-101.9l556.5-152.5c49.1-13.5 101.5 0.7 137.1 37.1 35.6 36.3 48.6 89.1 34.1 137.8l-155.7 523.2c-13.8 46.4-50.5 82.3-97.1 95.1-12.3 3.4-24.7 5-37.1 5zm-120.6-442.3l50.6 46.8 19.7-66z"/>
					</g>
					<g id="&lt;Group&gt;" style="opacity: 0">
						<path id="&lt;Compound Path&gt;" fill-rule="evenodd" class="s4" d="m681.6 960.9c-32.3 0-63.9-12.1-88.2-34.6l-400.8-370.6c-34.7-32.1-49.2-80.4-38-126.3 11.2-45.8 46.4-82 91.9-94.5l556.5-152.6c45.5-12.5 94.2 0.7 127.2 34.5 33.1 33.7 45.2 82.7 31.7 128l-155.7 523.2c-12.8 43-46.9 76.4-90.2 88.3-11.3 3.1-22.9 4.6-34.4 4.6zm-140.6-437.2l75.6 70 29.4-98.7z"/>
					</g>
					<g id="&lt;Group&gt;" style="opacity: 0">
						<path id="&lt;Compound Path&gt;" fill-rule="evenodd" class="s4" d="m681.6 950.9c-29.8 0-59-11.1-81.4-31.9l-400.8-370.6c-32-29.6-45.4-74.3-35.1-116.6 10.3-42.3 42.8-75.7 84.8-87.3l556.5-152.5c42-11.6 87 0.6 117.5 31.8 30.5 31.1 41.7 76.3 29.3 118.1l-155.7 523.2c-11.9 39.8-43.4 70.6-83.3 81.5-10.5 2.9-21.2 4.3-31.8 4.3zm-160.6-432l100.6 93 39.1-131.4z"/>
					</g>
					<g id="&lt;Group&gt;" style="opacity: 0">
						<path id="&lt;Compound Path&gt;" fill-rule="evenodd" class="s4" d="m681.6 940.9c-27.3 0-54.1-10.2-74.7-29.2l-400.7-370.7c-29.4-27.1-41.7-68-32.2-106.8 9.5-38.8 39.2-69.5 77.8-80l556.4-152.6c38.6-10.6 79.8 0.6 107.8 29.2 27.9 28.5 38.2 70 26.8 108.3l-155.7 523.2c-10.9 36.4-39.7 64.6-76.4 74.7-9.6 2.6-19.4 3.9-29.1 3.9zm-180.6-426.9l125.6 116.2 48.8-164.1z"/>
					</g>
					<g id="&lt;Group&gt;" style="opacity: 0">
						<path id="&lt;Compound Path&gt;" fill-rule="evenodd" class="s4" d="m681.6 930.9c-24.8 0-49.1-9.3-67.9-26.6l-400.7-370.6c-26.7-24.7-37.9-61.9-29.3-97.2 8.6-35.2 35.7-63.1 70.7-72.7l556.5-152.6c35-9.6 72.5 0.6 97.9 26.5 25.4 26 34.7 63.7 24.4 98.5l-155.7 523.2c-9.9 33.1-36.1 58.8-69.4 67.9-8.7 2.4-17.6 3.6-26.5 3.6zm-200.7-421.8l150.7 139.3 58.5-196.7z"/>
					</g>
					<g id="&lt;Group&gt;" style="opacity: 0">
						<path id="&lt;Compound Path&gt;" fill-rule="evenodd" class="s4" d="m681.6 920.9c-22.3 0-44.2-8.3-61.1-23.9l-400.7-370.7c-24-22.2-34.1-55.6-26.4-87.4 7.8-31.7 32.1-56.8 63.7-65.4l556.4-152.6c31.6-8.6 65.3 0.5 88.2 23.8 22.8 23.4 31.2 57.3 21.9 88.7l-155.7 523.2c-8.9 29.8-32.5 52.9-62.5 61.1-7.8 2.2-15.8 3.2-23.8 3.2zm-220.7-416.7l175.7 162.5 68.3-229.4z"/>
					</g>
					<g id="&lt;Group&gt;" style="opacity: 0">
						<path id="&lt;Compound Path&gt;" fill-rule="evenodd" class="s4" d="m681.6 910.9c-19.8 0-39.3-7.4-54.3-21.3l-400.8-370.6c-21.3-19.7-30.2-49.5-23.4-77.7 6.9-28.2 28.6-50.5 56.6-58.2l556.5-152.6c28-7.7 58 0.5 78.3 21.2 20.3 20.8 27.8 51 19.5 78.8l-155.7 523.2c-7.9 26.5-28.9 47-55.5 54.4-7 1.9-14.1 2.8-21.2 2.8zm-240.7-411.6l200.7 185.6 78-262z"/>
					</g>
					<g id="&lt;Group&gt;" style="opacity: 0">
						<path id="&lt;Compound Path&gt;" fill-rule="evenodd" class="s4" d="m681.6 900.9c-17.4 0-34.4-6.5-47.5-18.6l-400.8-370.7c-18.6-17.2-26.5-43.2-20.4-67.9 6-24.7 24.9-44.2 49.5-50.9l556.4-152.6c24.6-6.7 50.8 0.4 68.6 18.5 17.7 18.2 24.3 44.6 17 69l-155.7 523.2c-6.9 23.1-25.2 41.1-48.6 47.5-6.1 1.7-12.3 2.5-18.5 2.5zm-260.7-406.5l225.7 208.8 87.7-294.7z"/>
					</g>
					<g id="&lt;Group&gt;" style="opacity: 0">
						<path id="&lt;Compound Path&gt;" fill-rule="evenodd" class="s4" d="m681.6 890.9c-14.9 0-29.5-5.6-40.7-15.9l-400.8-370.7c-16-14.8-22.7-37.1-17.5-58.3 5.1-21.1 21.4-37.8 42.4-43.6l556.5-152.6c21-5.7 43.5 0.3 58.7 15.9 15.3 15.6 20.9 38.2 14.6 59.1l-155.7 523.2c-5.9 19.9-21.6 35.3-41.6 40.8-5.2 1.4-10.6 2.1-15.9 2.1zm-280.7-401.3l250.7 231.8 97.4-327.3z"/>
					</g>
					<g id="&lt;Group&gt;" style="opacity: .1">
						<path id="&lt;Compound Path&gt;" fill-rule="evenodd" class="s4" d="m681.6 880.9c-12.4 0-24.6-4.6-33.9-13.3l-400.8-370.6c-13.3-12.4-18.9-31-14.6-48.6 4.3-17.6 17.8-31.6 35.3-36.4l556.5-152.5c17.5-4.8 36.3 0.2 49 13.2 12.7 13 17.3 31.8 12.2 49.3l-155.7 523.2c-5 16.5-18.1 29.4-34.7 33.9-4.4 1.2-8.9 1.8-13.3 1.8zm-300.7-396.2l275.7 255 107.1-360z"/>
					</g>
					<g id="&lt;Group&gt;">
						<path id="&lt;Compound Path&gt;" fill-rule="evenodd" class="s4" d="m681.6 870.9c-9.9 0-19.6-3.7-27.1-10.6l-400.8-370.7c-10.7-9.8-15.1-24.7-11.7-38.8 3.5-14.1 14.3-25.3 28.3-29.1l556.5-152.6c14-3.8 29 0.2 39.1 10.6 10.2 10.4 13.9 25.5 9.8 39.4l-155.7 523.2c-4 13.3-14.5 23.5-27.8 27.2-3.5 0.9-7 1.4-10.6 1.4zm-320.7-391.1l300.7 278.1 116.9-392.6z"/>
					</g>
					<g id="&lt;Group&gt;">
						<path id="&lt;Compound Path&gt;" fill-rule="evenodd" class="s5" d="m681.6 859.5c-7.1 0-14-2.7-19.4-7.6l-400.7-370.7c-7.7-7-10.9-17.6-8.4-27.7 2.5-10.1 10.2-18.1 20.2-20.8l556.5-152.6c10-2.7 20.7 0.2 28 7.6 7.2 7.4 9.9 18.2 6.9 28.1l-155.7 523.3c-2.8 9.4-10.3 16.7-19.8 19.4-2.5 0.6-5 1-7.6 1zm-343.6-385.3l329.3 304.6 128-430z"/>
					</g>
					<g id="&lt;Group&gt;">
						<path id="&lt;Compound Path&gt;" fill-rule="evenodd" class="s6" d="m681.6 848c-4.2 0-8.4-1.5-11.6-4.5l-400.8-370.7c-4.5-4.2-6.5-10.6-5-16.6 1.5-6.1 6.1-10.8 12.1-12.5l556.5-152.5c6-1.7 12.4 0.1 16.8 4.5 4.3 4.5 5.9 10.9 4.2 16.9l-155.7 523.2c-1.7 5.7-6.2 10.1-11.9 11.6q-2.3 0.6-4.6 0.6zm-366.4-379.4l357.9 331 139-467.2z"/>
					</g>
					<g id="&lt;Group&gt;">
						<path id="&lt;Compound Path&gt;" fill-rule="evenodd" class="s7" d="m681.6 836.6c-1.4 0-2.8-0.5-3.8-1.5l-400.8-370.6c-1.5-1.5-2.2-3.6-1.7-5.6 0.5-2 2.1-3.6 4.1-4.2l556.4-152.5c2-0.6 4.2 0 5.6 1.5 1.5 1.5 2 3.6 1.4 5.6l-155.7 523.2c-0.6 1.9-2.1 3.4-4 3.9q-0.7 0.2-1.5 0.2zm-389.3-373.6l386.5 357.5 150.1-504.6z"/>
					</g>
				</g>
				<path id="&lt;Path&gt;" class="s8" d="m897 567.5c0 163.9-132.9 296.8-296.8 296.8-164 0-296.8-132.9-296.8-296.8 0-163.9 132.8-296.8 296.8-296.8 163.9 0 296.8 132.9 296.8 296.8z"/>
				<g id="&lt;Group&gt;">
					<g id="&lt;Group&gt;">
					</g>
				</g>
			</g>
		</g>
		<path id="Mamma Mia" fill-rule="evenodd" class="s9" d="m388 662.9l80.9-218.8q-24.2 7.9-37.6 26.4-13 18.2-13 45.3 0 12.1 2.2 16.5 2.2 4.5 2.2 5.4-34.1 0-34.1-29 0-19.7 15-39.5 15.3-20 38.9-32.5 23.9-12.7 47.4-12.7 11.8 0 24.3 4.5l-7.4 167.9 70.1-167.9h45.9l-33.4 234.4h-45.9l20.4-143-59.9 143h-43.7l6.4-143.6-53.2 143.6zm267.6 2q-18.2 0-30.3-12.5-12.1-12.4-12.1-38.8 0-23.6 9.3-49.4 9.5-26.1 28-44 18.8-18.1 44.6-18.1 13.1 0 19.4 4.4 6.4 4.5 6.4 11.8v2.2l3.5-16.9h45.9l-22.9 108.4q-1.3 4.7-1.3 10.2 0 13.7 13 13.7 9 0 15.3-8.3 6.7-8.2 10.5-21.5l21.7-102.5h45.9l-3.5 16.6q16.2-18.1 38.9-18.1 28 0 32.8 27.4 17.5-27.1 44.3-27.1 16.2 0 25.8 8.9 9.5 8.9 9.5 27.1 0 9.2-2.2 20.7-2.2 11.1-6.4 27.4-2.5 9.9-4.8 19.4-1.9 9.3-1.9 14.7 0 6.3 2.9 9.8 2.9 3.6 9.9 3.6 9.5 0 15.3-6.7 5.7-7 11.4-21.3l21.7-102.4h45.9l-3.5 16.6q16.2-18.1 38.8-18.1 28.1 0 32.9 27.4 17.5-27.1 44.2-27.1 16.3 0 25.8 8.9 9.6 8.9 9.6 27.1 0 9.2-2.2 20.7-2.3 11.1-6.4 27.4-2.5 9.9-4.8 19.4-1.9 9.3-1.9 14.7 0 6.3 2.9 9.8 2.8 3.6 9.9 3.6 9.5 0 15.2-6.7 3.7-4.5 7.4-12 0-0.9 0-1.7 0-23.6 9.2-49.4 9.6-26.1 28.1-44 18.7-18.1 44.6-18.1 13 0 19.4 4.4 6.4 4.5 6.4 11.8v2.2l3.5-16.9h45.8l-22.9 108.4q-1.3 4.7-1.3 10.2 0 6.3 2.9 9.2 3.2 2.6 10.2 2.6 4.5 0 7-1.3-7 17.8-13.4 25.1-6.4 7.1-18.5 7.1-13 0-21.3-7.7-8-8-9.9-22-19.4 29.7-47.5 29.7-18.1 0-30.2-12.5-5.7-5.8-8.8-14.8-6.2 10-13.2 15.5-15.3 11.8-31.9 11.8-19.4 0-28.6-10.2-9-10.6-9-25.8 0-6.7 1.6-15 1.6-8.6 3.2-16.6 1.9-8 2.6-10.2 2.5-11.1 4.8-22 2.2-10.8 2.2-17.5 0-16.2-11.5-16.2-8.3 0-14.6 8.2-6.4 8-10.2 21.1l-21.7 102.2h-45.9l23.3-109.9q0.9-3.8 0.9-7.9 0-14.1-9.5-14.1-8.9 0-15.6 8.3-6.4 8-10.2 21.4l-21.7 102.2h-45.9l3.1-14.4q-2.4 2.6-5 4.6-15.3 11.8-31.8 11.8-19.5 0-28.7-10.2-8.9-10.6-8.9-25.8 0-6.7 1.6-15 1.6-8.6 3.1-16.6 2-8 2.6-10.2 2.5-11.1 4.8-22 2.2-10.8 2.2-17.5 0-16.2-11.5-16.2-8.3 0-14.6 8.2-6.4 8-10.2 21.1l-21.7 102.2h-45.9l23.3-109.9q1-3.8 1-7.9 0-14.1-9.6-14.1-8.9 0-15.6 8.3-6.4 8-10.2 21.4l-21.7 102.2h-45.9l3.6-16.6q-3.6 3.7-7.4 6.4-17.2 12.2-34.7 12.2-13.4 0-21.7-7.4-7.9-7.6-9.5-22-9.3 13.1-20.7 21.4-11.2 8-26.8 8zm20.7-30.9q8 0 15.6-7.4 8-7.6 10.9-20.7l15.2-72q0-4.1-3.1-8-3.2-4.1-9.9-4.1-12.8 0-23 15-10.1 14.6-15.9 35.7-5.7 20.7-5.7 36.6 0 15.9 4.4 20.4 4.8 4.5 11.5 4.5zm646.8 0q7.9 0 15.6-7.4 7.9-7.6 10.8-20.7l15.3-72q0-4.1-3.2-8-3.2-4.1-9.9-4.1-12.7 0-22.9 15-10.2 14.6-15.9 35.7-5.8 20.7-5.8 36.6 0 15.9 4.5 20.4 4.8 4.5 11.5 4.5zm180.3 28.9l80.9-218.8q-24.2 7.9-37.6 26.4-13.1 18.2-13.1 45.3 0 12.1 2.3 16.5 2.2 4.5 2.2 5.4-34.1 0-34.1-29 0-19.7 15-39.5 15.3-20 38.9-32.5 23.9-12.7 47.4-12.7 11.8 0 24.2 4.5l-7.3 167.9 70.1-167.9h45.9l-33.5 234.4h-45.8l20.3-143-59.9 143h-43.6l6.4-143.6-53.2 143.6zm282.6-176.5q-10.6 0-17.9-7.3-7.3-7.3-7.3-17.8 0-10.5 7.3-17.9 7.3-7.6 17.9-7.6 10.5 0 17.8 7.6 7.6 7.4 7.6 17.9 0 10.5-7.6 17.8-7.3 7.3-17.8 7.3zm-21.7 178.5q-15.3 0-24.9-9.6-9.2-9.6-9.2-28.7 0-7.9 2.6-20.7l21.6-102.3h45.9l-22.9 108.4q-1.3 4.7-1.3 10.2 0 6.3 2.9 9.2 3.1 2.6 10.1 2.6 9.3 0 17.2-7.7 4.4-4.3 7.4-10 0-1.4 0-2.7 0-23.6 9.2-49.4 9.6-26.1 28.1-44 18.7-18.1 44.6-18.1 13 0 19.4 4.4 6.4 4.5 6.4 11.8v2.2l3.5-16.9h45.8l-22.9 108.4q-1.3 4.7-1.3 10.2 0 6.3 2.9 9.2 3.2 2.6 10.2 2.6 4.5 0 7-1.3-7 17.8-13.4 25.1-6.4 7.1-18.5 7.1-13 0-21.3-7.7-8-8-9.9-22-19.4 29.7-47.5 29.7-18.1 0-30.2-12.5-6.1-6.2-9.1-16-7.2 10.6-15.8 16.3-18.4 12.2-36.6 12.2zm112.5-30.9q7.9 0 15.6-7.4 7.9-7.6 10.8-20.7l15.3-72q0-4.1-3.2-8-3.2-4.1-9.9-4.1-12.7 0-22.9 15-10.2 14.6-15.9 35.7-5.8 20.7-5.8 36.6 0 15.9 4.5 20.4 4.8 4.5 11.5 4.5z"/>
	</g>
</svg>